<svg width="23" height="21" viewBox="0 0 23 21" fill="none" xmlns="http://www.w3.org/2000/svg">
<path fill-rule="evenodd" clip-rule="evenodd" d="M0 -0.00317383H23V20.9968H0V-0.00317383Z" fill="white" fill-opacity="0.01"/>
<path d="M11.5008 18.3718C17.2508 18.3718 18.2091 13.7922 18.2091 12.2468C18.2091 10.8634 18.2091 8.82172 18.2091 6.12183H4.79248V12.2468C4.79248 13.7565 5.75081 18.3718 11.5008 18.3718Z" stroke="white" stroke-width="2" stroke-linejoin="round"/>
<path d="M1.91748 3.49683L4.79248 6.12183" stroke="white" stroke-width="2" stroke-linecap="round" stroke-linejoin="round"/>
<path d="M21.0825 3.49683L18.2075 6.12183" stroke="white" stroke-width="2" stroke-linecap="round" stroke-linejoin="round"/>
<path d="M1.91748 11.8096H4.79248" stroke="white" stroke-width="2" stroke-linecap="round" stroke-linejoin="round"/>
<path d="M21.0825 11.8096H18.2075" stroke="white" stroke-width="2" stroke-linecap="round" stroke-linejoin="round"/>
<path d="M3.35498 19.2471L6.22998 16.6221" stroke="white" stroke-width="2" stroke-linecap="round" stroke-linejoin="round"/>
<path d="M19.645 19.2471L16.77 16.6221" stroke="white" stroke-width="2" stroke-linecap="round" stroke-linejoin="round"/>
<path d="M11.5 18.3718V6.12183" stroke="white" stroke-width="2" stroke-linecap="round" stroke-linejoin="round"/>
<path d="M7.15039 17.0773C8.14801 17.8395 9.54816 18.3719 11.501 18.3719C13.471 18.3719 14.8785 17.8343 15.8778 17.0654" stroke="white" stroke-width="2" stroke-linecap="round" stroke-linejoin="round"/>
<path d="M15.3341 5.3929C15.3341 3.37937 13.6179 1.74707 11.5008 1.74707C9.38372 1.74707 7.66748 3.37937 7.66748 5.3929V6.12207H15.3341V5.3929Z" stroke="white" stroke-width="2" stroke-linejoin="round"/>
</svg>
