<svg width="21" height="21" viewBox="0 0 21 21" fill="none" xmlns="http://www.w3.org/2000/svg">
<path d="M11.1788 3.42017H9.77881V11.0826L14.8369 13.4466L15.4379 12.2032L11.1788 10.2127V3.42017Z" fill="black"/>
<path d="M10.5 0C4.70102 0 0 4.62267 0 10.325C0 16.0273 4.70102 20.65 10.5 20.65C16.299 20.65 21 16.0273 21 10.325C21 4.62267 16.299 0 10.5 0ZM10.5 19.2733C5.47422 19.2733 1.4 15.267 1.4 10.325C1.4 5.38298 5.47422 1.37667 10.5 1.37667C15.5258 1.37667 19.6 5.38298 19.6 10.325C19.6 15.267 15.5258 19.2733 10.5 19.2733Z" fill="black"/>
</svg>
