<svg width="19" height="26" viewBox="0 0 19 26" fill="none" xmlns="http://www.w3.org/2000/svg">
<path d="M12.4545 19.5307L10.376 24.2388M15.2173 19.4263L17.6235 24.2388M13.2965 19.7521L15.4855 24.2388M12.4053 24.2388L12.9851 22.845M17.066 16.4338C17.066 14.5864 15.5684 13.0888 13.721 13.0888C11.8736 13.0888 10.376 14.5864 10.376 16.4338C10.376 18.2812 11.8736 19.7788 13.721 19.7788C15.5684 19.7788 17.066 18.2812 17.066 16.4338Z" stroke="white" stroke-width="2" stroke-linecap="round" stroke-linejoin="round"/>
<path d="M16.5527 10.5741V4.64427C16.5527 4.49332 16.4927 4.34857 16.386 4.24183L13.3994 1.25532C13.2927 1.14858 13.148 1.08862 12.9971 1.08862H1.9451C1.63078 1.08862 1.37598 1.34343 1.37598 1.65775V19.4904C1.37598 19.8047 1.63078 20.0595 1.9451 20.0595H8.01578" stroke="white" stroke-width="2" stroke-linecap="round" stroke-linejoin="round"/>
<path d="M5.16943 8.67723H12.7578M5.16943 4.88306H8.96361M5.16943 12.4714H8.01506" stroke="white" stroke-width="2" stroke-linecap="round" stroke-linejoin="round"/>
<path d="M12.7588 1.08862V4.31367C12.7588 4.62799 13.0136 4.8828 13.3279 4.8828H16.553" stroke="white" stroke-width="2" stroke-linecap="round" stroke-linejoin="round"/>
</svg>
