<svg width="19" height="22" viewBox="0 0 19 22" fill="none" xmlns="http://www.w3.org/2000/svg">
<path d="M16.6767 10.5655V4.63572C16.6767 4.48478 16.6168 4.34002 16.51 4.23328L13.5235 1.24678C13.4167 1.14004 13.272 1.08008 13.1211 1.08008H2.06913C1.75481 1.08008 1.5 1.33489 1.5 1.6492V19.4818C1.5 19.7962 1.75481 20.0509 2.06913 20.0509H8.13981" stroke="white" stroke-width="2" stroke-linecap="round" stroke-linejoin="round"/>
<path d="M5.29346 8.66868H12.8818M5.29346 4.87451H9.08763M5.29346 12.4629H8.13909" stroke="white" stroke-width="2" stroke-linecap="round" stroke-linejoin="round"/>
<path d="M14.7362 15.2508L15.6847 14.3022C16.1001 13.8869 16.7736 13.8869 17.1889 14.3022C17.6043 14.7176 17.6043 15.3911 17.1889 15.8064L16.2404 16.755M14.7362 15.2508L11.899 18.088C11.7568 18.2302 11.6635 18.4139 11.6326 18.6125L11.4023 20.0888L12.8786 19.8587C13.0773 19.8277 13.2609 19.7344 13.4031 19.5922L16.2404 16.755M14.7362 15.2508L16.2404 16.755" stroke="white" stroke-width="2" stroke-linecap="round" stroke-linejoin="round"/>
<path d="M12.8828 1.08008V4.30513C12.8828 4.61944 13.1376 4.87425 13.4519 4.87425H16.677" stroke="white" stroke-width="2" stroke-linecap="round" stroke-linejoin="round"/>
</svg>
