<svg width="21" height="22" viewBox="0 0 21 22" fill="none" xmlns="http://www.w3.org/2000/svg">
<path d="M10.5 20.0801C15.7467 20.0801 20 15.8267 20 10.5801C20 5.33337 15.7467 1.08008 10.5 1.08008C5.25329 1.08008 1 5.33337 1 10.5801C1 12.3104 1.46262 13.9327 2.27093 15.3301L1.475 19.6051L5.75 18.8092C7.14733 19.6174 8.76967 20.0801 10.5 20.0801Z" stroke="white" stroke-width="2" stroke-linecap="round" stroke-linejoin="round"/>
<path d="M8.42006 7.11937C8.2346 7.00947 8 7.14314 8 7.35872V13.8014C8 14.017 8.2346 14.1507 8.42006 14.0408L13.8561 10.8194C14.0379 10.7117 14.0379 10.4485 13.8561 10.3407L8.42006 7.11937Z" stroke="white" stroke-width="2" stroke-linecap="round" stroke-linejoin="round"/>
</svg>
