<svg width="26" height="25" viewBox="0 0 26 25" fill="none" xmlns="http://www.w3.org/2000/svg">
<path d="M20.1271 3.125H5.29662C4.45377 3.125 3.64544 3.45424 3.04946 4.04029C2.45347 4.62634 2.11865 5.4212 2.11865 6.25V21.875C2.11898 22.0596 2.16917 22.2408 2.2641 22.4C2.35903 22.5592 2.49528 22.6908 2.65891 22.7812C2.81723 22.8695 2.996 22.9161 3.17797 22.9167C3.36811 22.9166 3.55472 22.8662 3.71823 22.7708L8.47459 19.9375C8.6504 19.8346 8.85276 19.7839 9.05721 19.7917H20.1271C20.97 19.7917 21.7783 19.4624 22.3743 18.8764C22.9703 18.2903 23.3051 17.4955 23.3051 16.6667V6.25C23.3051 5.4212 22.9703 4.62634 22.3743 4.04029C21.7783 3.45424 20.97 3.125 20.1271 3.125ZM21.1865 16.6667C21.1865 16.9429 21.0748 17.2079 20.8762 17.4032C20.6775 17.5986 20.4081 17.7083 20.1271 17.7083H9.05721C8.47864 17.7079 7.91091 17.8628 7.41526 18.1562L4.2373 20.0312V6.25C4.2373 5.97373 4.3489 5.70878 4.54756 5.51343C4.74623 5.31808 5.01567 5.20833 5.29662 5.20833H20.1271C20.4081 5.20833 20.6775 5.31808 20.8762 5.51343C21.0748 5.70878 21.1865 5.97373 21.1865 6.25V16.6667Z" fill="#231F20"/>
</svg>
