<svg width="25" height="25" viewBox="0 0 25 25" fill="none" xmlns="http://www.w3.org/2000/svg">
<path d="M9.89583 10.4167C11.9094 10.4167 13.5417 8.78437 13.5417 6.77083C13.5417 4.7573 11.9094 3.125 9.89583 3.125C7.88229 3.125 6.25 4.7573 6.25 6.77083C6.25 8.78437 7.88229 10.4167 9.89583 10.4167Z" stroke="#333333" stroke-width="2.5" stroke-linecap="round" stroke-linejoin="round"/>
<path d="M16.9834 3.64575C18.0421 4.28372 18.7503 5.44455 18.7503 6.77075C18.7503 8.09695 18.0421 9.25778 16.9834 9.89575" stroke="#333333" stroke-width="2.5" stroke-linecap="round" stroke-linejoin="round"/>
<path d="M2.0835 21.2499V21.8749H17.7085V21.2499C17.7085 18.9164 17.7085 17.7496 17.2544 16.8583C16.8549 16.0743 16.2175 15.4368 15.4334 15.0374C14.5421 14.5833 13.3754 14.5833 11.0418 14.5833H8.75016C6.41662 14.5833 5.24985 14.5833 4.35854 15.0374C3.57453 15.4368 2.93711 16.0743 2.53764 16.8583C2.0835 17.7496 2.0835 18.9164 2.0835 21.2499Z" stroke="#333333" stroke-width="2.5" stroke-linecap="round" stroke-linejoin="round"/>
<path d="M22.9167 21.8751V21.2501C22.9167 18.9166 22.9167 17.7498 22.4625 16.8585C22.0631 16.0745 21.4256 15.4371 20.6416 15.0376" stroke="#333333" stroke-width="2.5" stroke-linecap="round" stroke-linejoin="round"/>
</svg>
