<svg width="25" height="25" viewBox="0 0 25 25" fill="none" xmlns="http://www.w3.org/2000/svg">
<path d="M19.1075 7.90148C19.7587 8.83549 20.217 9.91408 20.4245 11.0794H22.9168V13.9204H20.4245C20.217 15.0858 19.7587 16.1643 19.1075 17.0984L20.8703 18.8612L18.8615 20.87L17.0986 19.1072C16.1646 19.7585 15.086 20.2167 13.9206 20.4242V22.9166H11.0797V20.4242C9.91433 20.2167 8.83573 19.7585 7.90172 19.1072L6.13886 20.87L4.13005 18.8612L5.89287 17.0984C5.24162 16.1643 4.78335 15.0858 4.57585 13.9204H2.0835V11.0794H4.57585C4.78335 9.91408 5.24162 8.83549 5.89287 7.90148L4.13005 6.13862L6.13886 4.12981L7.90172 5.89263C8.83573 5.24138 9.91433 4.78311 11.0797 4.57561V2.08325H13.9206V4.57561C15.086 4.78311 16.1646 5.24138 17.0986 5.89263L18.8615 4.12981L20.8703 6.13862L19.1075 7.90148Z" stroke="#333333" stroke-width="2.5" stroke-linejoin="round"/>
<path d="M12.5002 15.1041C13.9384 15.1041 15.1043 13.9381 15.1043 12.4999C15.1043 11.0617 13.9384 9.89575 12.5002 9.89575C11.0619 9.89575 9.896 11.0617 9.896 12.4999C9.896 13.9381 11.0619 15.1041 12.5002 15.1041Z" stroke="#333333" stroke-width="2.5" stroke-linejoin="round"/>
</svg>
